<svg width="38" height="38" viewBox="0 0 38 38" fill="none" xmlns="http://www.w3.org/2000/svg">
<path d="M9.49895 35.4567C10.8953 36.2648 12.6578 36.2887 14.2529 36.7152C15.7945 37.1272 17.3292 38 19.0002 38C20.6713 38 22.2059 37.1272 23.7476 36.7152C25.3422 36.2891 27.1047 36.2652 28.5011 35.4571C29.9176 34.6373 30.8157 33.1149 31.965 31.9656C33.1148 30.8158 34.6373 29.9181 35.4566 28.5016C36.2652 27.1053 36.2886 25.3424 36.7152 23.7473C37.1272 22.2061 38 20.671 38 19C38 17.329 37.1272 15.7943 36.7152 14.2527C36.2891 12.6581 36.2652 10.8956 35.4571 9.49883C34.6378 8.08279 33.1153 7.18424 31.9655 6.03491C30.8161 4.88558 29.9185 3.36267 28.5015 2.54333C27.1052 1.73524 25.3427 1.71134 23.7476 1.28479C22.2059 0.872776 20.6713 0 19.0002 0C17.3292 0 15.7945 0.873714 14.2524 1.28573C12.6578 1.7118 10.8953 1.73571 9.49848 2.5438C8.08242 3.36361 7.18433 4.88605 6.03451 6.03538C4.88517 7.18517 3.36272 8.08279 2.5429 9.4993C1.73479 10.8956 1.71136 12.6585 1.28481 14.2536C0.872786 15.7948 0 17.3299 0 19.0009C0 20.672 0.872786 22.2066 1.28481 23.7482C1.71089 25.3429 1.73479 27.1053 2.5429 28.5021C3.36225 29.9181 4.88517 30.8167 6.03451 31.966C7.18386 33.1154 8.08196 34.6373 9.49895 35.4567Z" fill="#8C5637"/>
<path d="M10.639 16.5572C11.8026 16.5572 12.7458 15.537 12.7458 14.2786C12.7458 13.0202 11.8026 12 10.639 12C9.47546 12 8.53223 13.0202 8.53223 14.2786C8.53223 15.537 9.47546 16.5572 10.639 16.5572Z" fill="#26120D"/>
<path d="M27.3587 16.5572C28.5223 16.5572 29.4655 15.537 29.4655 14.2786C29.4655 13.0202 28.5223 12 27.3587 12C26.1952 12 25.252 13.0202 25.252 14.2786C25.252 15.537 26.1952 16.5572 27.3587 16.5572Z" fill="#26120D"/>
<path d="M23.9008 27.0567C23.8887 27.0623 22.7498 27.627 21.6351 27.7162C20.7954 27.7803 19.9222 27.6112 19.4642 27.5016V24.6843C21.3908 24.3935 22.8892 22.4112 22.8892 21.2464C22.8892 19.9877 21.1484 19.2557 18.9998 19.2557C16.8512 19.2557 15.1095 19.9868 15.1095 21.2464C15.1095 22.4112 16.6078 24.3935 18.5353 24.6843V27.5007C18.0774 27.6103 17.2051 27.7803 16.3645 27.7162C15.2553 27.627 14.109 27.0623 14.0988 27.0567L13.6836 27.8881C13.7375 27.9141 14.998 28.5392 16.2911 28.6423C17.4373 28.7371 18.6069 28.4519 19.0007 28.3442C19.3407 28.438 20.2594 28.6609 21.2431 28.6609C21.3973 28.6609 21.5543 28.6553 21.7104 28.6423C23.0034 28.5402 24.264 27.915 24.3178 27.8881L23.9008 27.0567Z" fill="#26120D"/>
</svg>
