<svg width="276" height="236" viewBox="0 0 276 236" fill="none" xmlns="http://www.w3.org/2000/svg">
<path d="M138 2.82529H266.09C269.609 2.82529 271.721 4.1532 272.819 6.89377C273.1 7.83636 273.21 8.82218 273.142 9.80386V188.322C273.142 193.846 270.918 196.064 265.386 196.064H10.5566C9.46286 196.112 8.36797 196.002 7.30507 195.739C6.02739 195.386 4.90104 194.62 4.09976 193.561C3.29848 192.501 2.86673 191.207 2.87113 189.876C2.87113 189.354 2.87113 188.831 2.87113 188.308V10.5102C2.87113 4.97254 4.98253 2.82529 10.4581 2.82529H138ZM137.887 178.999H253.788C256.35 178.999 256.35 178.999 256.35 176.484C256.35 125.176 256.35 73.8494 256.35 22.5037C256.35 19.9327 256.35 19.9186 253.816 19.9186H22.2114C19.6496 19.9186 19.6355 19.9186 19.6355 22.4614V176.442C19.6355 178.985 19.6355 178.999 22.1832 178.999H137.887Z" stroke="#8C5637" stroke-width="3" stroke-miterlimit="10"/>
<path d="M137.999 233.175H74.8973C71.9554 233.175 71.688 232.92 71.7021 229.897C71.6436 227.876 71.6905 225.853 71.8428 223.837C72.1146 220.456 73.6609 217.307 76.1666 215.031C78.6723 212.755 81.9487 211.524 85.3275 211.589C89.6348 211.589 93.9561 211.589 98.2774 211.589H190.08C196.626 211.589 201.791 215.149 203.551 220.941C204.607 224.43 204.283 228.004 204.17 231.607C204.174 231.827 204.13 232.045 204.043 232.248C203.956 232.45 203.826 232.631 203.664 232.779C203.502 232.928 203.31 233.04 203.101 233.108C202.892 233.176 202.671 233.199 202.453 233.175H137.999Z" stroke="#8C5637" stroke-width="3" stroke-miterlimit="10"/>
<path d="M167.883 81.3937C166.382 78.8002 163.594 77.1564 161.488 75.0513C159.384 72.9454 157.74 70.1575 155.147 68.6571C152.59 67.1778 149.362 67.1338 146.441 66.3532C143.618 65.599 140.809 64 137.748 64C134.687 64 131.878 65.5981 129.055 66.3532C126.135 67.1338 122.907 67.1769 120.349 68.6562C117.756 70.1575 116.113 72.9454 114.007 75.0505C111.902 77.1555 109.114 78.7994 107.613 81.3928C106.133 83.9501 106.09 87.1781 105.31 90.0989C104.556 92.9211 102.957 95.731 102.957 98.7917C102.957 101.852 104.555 104.661 105.31 107.485C106.09 110.405 106.134 113.632 107.613 116.19C109.114 118.783 111.902 120.426 114.007 122.532C116.112 124.637 117.756 127.426 120.349 128.926C122.905 130.407 126.134 130.45 129.055 131.23C131.878 131.984 134.687 133.583 137.748 133.583C140.809 133.583 143.618 131.985 146.441 131.23C149.361 130.45 152.589 130.407 155.146 128.927C157.74 127.426 159.382 124.638 161.488 122.533C163.593 120.427 166.382 118.784 167.883 116.191C169.363 113.633 169.405 110.405 170.186 107.485C170.94 104.662 172.539 101.852 172.539 98.7917C172.539 95.731 170.941 92.922 170.186 90.0989C169.407 87.1789 169.363 83.9519 167.883 81.3937Z" fill="#8C5637"/>
<path d="M127.644 96.2995C129.575 96.2995 131.141 94.7061 131.141 92.7407C131.141 90.7752 129.575 89.1819 127.644 89.1819C125.712 89.1819 124.146 90.7752 124.146 92.7407C124.146 94.7061 125.712 96.2995 127.644 96.2995Z" fill="black"/>
<path d="M147.716 96.2995C149.648 96.2995 151.214 94.7061 151.214 92.7407C151.214 90.7752 149.648 89.1819 147.716 89.1819C145.784 89.1819 144.218 90.7752 144.218 92.7407C144.218 94.7061 145.784 96.2995 147.716 96.2995Z" fill="black"/>
<path d="M142.902 106.563C142.849 106.538 141.611 105.923 140.342 105.822C139.779 105.776 138.831 105.854 138.137 106.003V103.74C140.029 103.455 141.501 101.507 141.501 100.363C141.501 99.127 139.79 98.4089 137.68 98.4089C135.57 98.4089 133.861 99.1261 133.861 100.363C133.861 101.507 135.332 103.456 137.224 103.74V106.005C136.682 105.887 135.845 105.754 135.02 105.822C133.751 105.923 132.511 106.538 132.46 106.563C132.233 106.677 132.143 106.95 132.255 107.175C132.335 107.335 132.497 107.427 132.664 107.427C132.732 107.427 132.802 107.412 132.868 107.378C132.878 107.373 133.998 106.818 135.093 106.731C136.26 106.64 137.534 107.023 137.546 107.026C137.638 107.053 137.733 107.053 137.82 107.025C137.834 107.022 139.101 106.641 140.268 106.731C141.357 106.819 142.483 107.373 142.493 107.378C142.723 107.493 142.993 107.399 143.104 107.175C143.218 106.95 143.127 106.676 142.902 106.563Z" fill="black"/>
<path d="M128.729 93.6594C129.351 93.6594 129.855 93.1551 129.855 92.533C129.855 91.9109 129.351 91.4066 128.729 91.4066C128.107 91.4066 127.603 91.9109 127.603 92.533C127.603 93.1551 128.107 93.6594 128.729 93.6594Z" fill="white"/>
<path d="M126.54 94.2796C126.876 94.2796 127.148 94.0072 127.148 93.6712C127.148 93.3352 126.876 93.0628 126.54 93.0628C126.204 93.0628 125.932 93.3352 125.932 93.6712C125.932 94.0072 126.204 94.2796 126.54 94.2796Z" fill="white"/>
<path d="M146.585 93.7263C147.208 93.7263 147.712 93.222 147.712 92.5999C147.712 91.9778 147.208 91.4734 146.585 91.4734C145.963 91.4734 145.459 91.9778 145.459 92.5999C145.459 93.222 145.963 93.7263 146.585 93.7263Z" fill="white"/>
<path d="M148.866 94.2391C149.202 94.2391 149.474 93.9671 149.474 93.6316C149.474 93.2961 149.202 93.024 148.866 93.024C148.531 93.024 148.259 93.2961 148.259 93.6316C148.259 93.9671 148.531 94.2391 148.866 94.2391Z" fill="white"/>
<path d="M128.262 97.0229C128.434 98.6527 126.647 98.8225 124.652 98.8225C122.659 98.8225 121.044 97.9671 121.044 97.3406C121.044 96.347 122.659 95.2224 124.652 95.2224C126.647 95.2224 128.181 96.2564 128.262 97.0229Z" fill="#76D5FF"/>
<path d="M147.611 97.0229C147.439 98.6527 149.226 98.8225 151.221 98.8225C153.214 98.8225 154.829 97.9671 154.829 97.3406C154.829 96.347 153.214 95.2224 151.221 95.2224C149.226 95.2224 147.692 96.2564 147.611 97.0229Z" fill="#76D5FF"/>
<path d="M101.173 109.765C100.709 109.19 100.139 108.705 99.4775 108.322C98.8212 107.941 98.0875 107.666 97.2996 107.509C96.5255 107.353 95.7764 107.276 95.0741 107.276H91.4377V99.9726C91.4377 97.5034 91.4207 95.0643 91.3908 92.6546C91.3594 90.2488 91.344 87.813 91.344 85.3357C91.2811 83.2384 91.2665 81.0719 91.2956 78.8957C91.3271 76.6886 91.1842 74.4977 90.8734 72.3907C90.741 71.3164 90.4408 70.413 89.9637 69.692C89.1428 68.5697 87.9675 68 86.4717 68C85.0526 68 83.5528 68.3467 82.0054 69.0303C80.3999 69.775 79.047 70.8444 77.9839 72.2125C76.9474 73.5488 75.9836 74.8615 75.128 76.1034C73.9519 77.7165 72.6862 79.2864 71.3648 80.7692C70.02 82.2772 68.7115 83.8642 67.4595 85.496C65.2009 88.6488 62.952 91.8399 60.7758 94.9813C58.5802 98.1447 56.2732 101.299 53.9169 104.35C53.3019 105.123 52.6375 106.009 51.9433 106.985C51.2394 107.972 50.7043 108.991 50.3523 110.014C49.9899 111.06 49.9067 112.125 50.1045 113.176C50.3103 114.263 51.0215 115.24 52.2178 116.073C53.7087 117.139 55.5104 117.71 57.576 117.771C59.5569 117.831 61.4781 117.862 63.2911 117.862H79.5192C79.5523 118.007 79.5991 118.295 79.6387 118.867C79.7 119.777 79.7299 120.786 79.7299 121.868L79.7315 126.833C79.8574 127.871 80.0826 128.998 80.3958 130.177C80.7405 131.476 81.5493 132.338 82.7973 132.74C83.2001 132.868 83.6893 132.95 84.2527 132.985C84.4343 132.995 84.6167 133 84.8016 133C85.1761 133 85.5636 132.98 85.9543 132.937C86.525 132.875 87.0553 132.798 87.53 132.705C88.0345 132.609 88.4696 132.456 88.8288 132.248C89.573 131.79 90.1413 131.159 90.5142 130.375C90.8686 129.624 91.1156 128.817 91.2463 127.971C91.3731 127.141 91.4369 126.287 91.4369 125.435V117.578C91.5434 117.587 91.6524 117.591 91.7525 117.591H93.1094C93.6373 117.591 94.0902 117.576 94.4946 117.545C94.8836 117.514 95.1371 117.499 95.2848 117.499C97.0809 117.376 98.6444 116.949 99.9376 116.232C101.307 115.472 102.001 114.042 102 111.952C101.931 111.1 101.654 110.365 101.173 109.765ZM80.014 87.3255V106.913H65.6263L80.014 87.3255Z" fill="#8C5637" stroke="#8C5637" stroke-width="2" stroke-miterlimit="10" stroke-linecap="round" stroke-linejoin="round"/>
<path d="M225.173 109.765C224.709 109.19 224.139 108.705 223.477 108.322C222.821 107.941 222.087 107.666 221.3 107.509C220.526 107.353 219.776 107.276 219.074 107.276H215.438V99.9726C215.438 97.5034 215.421 95.0643 215.391 92.6546C215.359 90.2488 215.344 87.813 215.344 85.3357C215.281 83.2384 215.267 81.0719 215.296 78.8957C215.327 76.6886 215.184 74.4977 214.873 72.3907C214.741 71.3164 214.441 70.413 213.964 69.692C213.143 68.5697 211.967 68 210.472 68C209.053 68 207.553 68.3467 206.005 69.0303C204.4 69.775 203.047 70.8444 201.984 72.2125C200.947 73.5488 199.984 74.8615 199.128 76.1034C197.952 77.7165 196.686 79.2864 195.365 80.7692C194.02 82.2772 192.711 83.8642 191.459 85.496C189.201 88.6488 186.952 91.8399 184.776 94.9813C182.58 98.1447 180.273 101.299 177.917 104.35C177.302 105.123 176.638 106.009 175.943 106.985C175.239 107.972 174.704 108.991 174.352 110.014C173.99 111.06 173.907 112.125 174.104 113.176C174.31 114.263 175.021 115.24 176.218 116.073C177.709 117.139 179.51 117.71 181.576 117.771C183.557 117.831 185.478 117.862 187.291 117.862H203.519C203.552 118.007 203.599 118.295 203.639 118.867C203.7 119.777 203.73 120.786 203.73 121.868L203.732 126.833C203.857 127.871 204.083 128.998 204.396 130.177C204.741 131.476 205.549 132.338 206.797 132.74C207.2 132.868 207.689 132.95 208.253 132.985C208.434 132.995 208.617 133 208.802 133C209.176 133 209.564 132.98 209.954 132.937C210.525 132.875 211.055 132.798 211.53 132.705C212.034 132.609 212.47 132.456 212.829 132.248C213.573 131.79 214.141 131.159 214.514 130.375C214.869 129.624 215.116 128.817 215.246 127.971C215.373 127.141 215.437 126.287 215.437 125.435V117.578C215.543 117.587 215.652 117.591 215.752 117.591H217.109C217.637 117.591 218.09 117.576 218.495 117.545C218.884 117.514 219.137 117.499 219.285 117.499C221.081 117.376 222.644 116.949 223.938 116.232C225.307 115.472 226.001 114.042 226 111.952C225.931 111.1 225.654 110.365 225.173 109.765ZM204.014 87.3255V106.913H189.626L204.014 87.3255Z" fill="#8C5637" stroke="#8C5637" stroke-width="2" stroke-miterlimit="10" stroke-linecap="round" stroke-linejoin="round"/>
</svg>
