<svg width="124" height="38" viewBox="0 0 124 38" fill="none" xmlns="http://www.w3.org/2000/svg">
<path d="M26.7817 29.2052C26.1138 28.0643 25.8946 26.8325 25.6826 25.6414C25.6347 25.3738 25.5085 25.0068 25.2932 24.6135C25.0778 24.2202 24.676 23.8373 24.676 23.8373L19.1588 17.2863L25.6959 11.0466C25.6959 11.0466 25.9027 10.8361 25.9648 10.7269C26.0664 10.5502 26.1019 10.4147 26.1527 10.2516C26.3059 9.75615 26.5047 9.26726 26.7817 8.79385C27.0753 8.2923 27.4567 7.91357 27.8424 7.51421C27.9709 7.38109 28.0639 7.25078 28.1587 7.03611C28.2536 6.82143 28.2422 6.70049 28.2408 6.51863C28.2313 5.38617 27.7949 4.26497 26.915 3.33782C26.0014 2.37552 24.7358 1.84491 23.3507 1.84491C21.9978 1.84491 20.7109 2.3488 19.7124 3.27595L10.3751 12.1228V6.97658C10.3751 3.99451 8.18455 1.83038 5.16717 1.83038C2.17303 1.83038 0 3.99451 0 6.97658V31.0646C0 34.0237 2.17303 36.1705 5.16717 36.1705C8.18455 36.1705 10.3751 34.0237 10.3751 31.0646V25.7347L11.9348 24.232L20.5937 34.3908L20.6317 34.4334C21.6221 35.5171 23.0964 36.164 24.5755 36.164C25.7742 36.164 26.8856 35.7576 27.8082 34.972C28.598 34.2787 29.1369 33.4102 29.3831 32.4615C29.4205 32.3176 29.4599 32.2374 29.4281 32.0841C29.3963 31.9309 29.2199 31.7476 29.1834 31.7181C28.2873 30.9784 27.4572 30.3592 26.7817 29.2052Z" fill="#8C5637"/>
<path d="M92.2067 9.7805C92.2698 9.46974 92.2822 9.10647 92.2822 9.10647V7.01781C92.2822 4.01184 90.1442 1.83036 87.1989 1.83036C84.2537 1.83036 82.1157 4.01184 82.1157 7.01781V18.4019L74.2822 4.80352L74.2561 4.75946C73.0204 2.76079 71.2302 1.8299 68.6236 1.8299C66.3818 1.8299 62.6225 2.66986 62.6225 8.29603C62.6225 8.29603 62.6524 8.73664 62.678 8.86695C62.753 9.24334 62.8099 9.28599 62.8896 9.46833C63.3023 10.4124 63.4807 11.3981 63.6519 12.3585C63.7482 12.8994 63.8393 13.4108 63.9688 13.8899C64.0916 14.3431 64.2671 14.8161 64.4536 15.3167C64.8587 16.4041 65.3169 17.6374 65.3169 19C65.3169 20.363 64.8577 21.5963 64.4531 22.6842C64.2667 23.1843 64.0907 23.6573 63.9688 24.1101C63.8397 24.5886 63.7482 25.0996 63.6519 25.6409C63.4788 26.6122 63.2634 27.5927 62.8407 28.5461C62.7644 28.7182 62.726 28.9206 62.6852 29.066C62.6444 29.2113 62.6221 29.5422 62.6221 29.5422V30.9817C62.6221 33.9881 64.76 36.1696 67.7053 36.1696C70.6985 36.1696 72.7885 34.0364 72.7885 30.9817V20.2112L80.5774 33.1781C81.8643 35.1913 83.8258 36.17 86.5728 36.17C89.177 36.17 92.2822 35.077 92.2822 29.8689V28.8466C92.2822 28.8466 92.2822 28.4247 92.2214 28.1801C92.1607 27.9354 92.1152 27.8055 92.036 27.6251C90.9108 25.0682 90.3283 22.1545 90.3283 18.9789C90.3283 15.8838 90.8842 13.0391 91.9577 10.5314C92.0616 10.29 92.1436 10.0913 92.2067 9.7805Z" fill="#8C5637"/>
<path d="M35.0533 35.4567C36.4664 36.2648 38.2499 36.2887 39.8642 36.7152C41.4243 37.1272 42.9774 38 44.6685 38C46.3595 38 47.9126 37.1272 49.4727 36.7152C51.0865 36.2891 52.8701 36.2652 54.2832 35.4571C55.7167 34.6373 56.6256 33.1149 57.7887 31.9656C58.9523 30.8158 60.493 29.9181 61.3222 28.5016C62.1404 27.1053 62.1642 25.3424 62.5958 23.7473C63.0128 22.2061 63.896 20.671 63.896 19C63.896 17.329 63.0128 15.7943 62.5958 14.2527C62.1646 12.6581 62.1404 10.8956 61.3226 9.49883C60.4935 8.08279 58.9528 7.18424 57.7892 6.03491C56.626 4.88558 55.7177 3.36267 54.2837 2.54333C52.8706 1.73524 51.087 1.71134 49.4727 1.28479C47.9126 0.872776 46.3595 0 44.6685 0C42.9774 0 41.4243 0.873714 39.8637 1.28573C38.2499 1.7118 36.4664 1.73571 35.0528 2.5438C33.6198 3.36361 32.7109 4.88605 31.5473 6.03538C30.3842 7.18517 28.8435 8.08279 28.0138 9.4993C27.196 10.8956 27.1723 12.6585 26.7406 14.2536C26.3237 15.7948 25.4404 17.3299 25.4404 19.0009C25.4404 20.672 26.3237 22.2066 26.7406 23.7482C27.1718 25.3429 27.196 27.1053 28.0138 28.5021C28.843 29.9181 30.3842 30.8167 31.5473 31.966C32.7104 33.1154 33.6193 34.6373 35.0533 35.4567Z" fill="#8C5637"/>
<path d="M118.415 15.3176H112.487C107.577 15.3176 107.196 18.6887 107.196 19.7218C107.196 20.7554 107.578 24.126 112.487 24.126H114.668V25.8678C114.668 25.9133 114.657 25.9648 114.646 25.9976C113.51 26.9435 111.711 27.4034 109.148 27.4034C105.726 27.4034 102.043 24.7668 102.043 18.9789C102.043 13.8871 104.669 10.5966 108.732 10.5966C111.053 10.5966 112.625 11.309 113.836 12.9163C114.886 14.2869 116.478 15.1043 118.095 15.1043C119.161 15.1043 120.185 14.7547 121.058 14.091C123.115 12.5221 123.38 9.68441 121.687 7.3431C118.865 3.43858 114.506 1.45819 108.732 1.45819C98.5756 1.45819 91.752 8.49899 91.752 18.9789C91.752 29.4831 98.5756 36.5413 108.732 36.5413C114.562 36.5413 118.505 35.1951 121.51 32.1835C123.092 30.6203 124 28.0024 124 25.0011V20.8355C123.999 17.2258 122.068 15.3176 118.415 15.3176Z" fill="#8C5637"/>
<path d="M40.3981 17.4265C40.9923 17.4265 41.4739 16.9118 41.4739 16.2767C41.4739 15.6417 40.9923 15.127 40.3981 15.127C39.8039 15.127 39.3223 15.6417 39.3223 16.2767C39.3223 16.9118 39.8039 17.4265 40.3981 17.4265Z" fill="#26120D"/>
<path d="M48.9362 17.4265C49.5304 17.4265 50.012 16.9118 50.012 16.2767C50.012 15.6417 49.5304 15.127 48.9362 15.127C48.342 15.127 47.8604 15.6417 47.8604 16.2767C47.8604 16.9118 48.342 17.4265 48.9362 17.4265Z" fill="#26120D"/>
<path d="M47.1706 22.7247C47.1644 22.7275 46.5828 23.0125 46.0136 23.0575C45.5848 23.0898 45.1389 23.0045 44.905 22.9492V21.5275C45.8889 21.3808 46.654 20.3805 46.654 19.7928C46.654 19.1576 45.7651 18.7883 44.6679 18.7883C43.5707 18.7883 42.6813 19.1572 42.6813 19.7928C42.6813 20.3805 43.4464 21.3808 44.4307 21.5275V22.9487C44.1968 23.004 43.7514 23.0898 43.3221 23.0575C42.7557 23.0125 42.1704 22.7275 42.1652 22.7247L41.9531 23.1442C41.9806 23.1573 42.6243 23.4728 43.2846 23.5248C43.87 23.5726 44.4672 23.4287 44.6683 23.3743C44.842 23.4217 45.3111 23.5342 45.8134 23.5342C45.8922 23.5342 45.9723 23.5314 46.052 23.5248C46.7123 23.4732 47.356 23.1578 47.3836 23.1442L47.1706 22.7247Z" fill="#26120D"/>
</svg>
